<svg xmlns="http://www.w3.org/2000/svg" viewBox="0 0 100 100" preserveAspectRatio="xMidYMid" width="200" height="200" style="shape-rendering: auto; display: block; background: rgb(255, 255, 255);" xmlns:xlink="http://www.w3.org/1999/xlink"><g><g transform="translate(50 50)">
<g>
<animateTransform repeatCount="indefinite" dur="0.22624434389140272s" keyTimes="0;1" values="0;45" type="rotate" attributeName="transform"></animateTransform><path fill="#6be15b" d="M25.826343140289918 -3 L32.82634314028992 -3 L32.82634314028992 3 L25.826343140289918 3 A26 26 0 0 1 20.38330271130932 16.140662024190032 L20.38330271130932 16.140662024190032 L25.333050179615153 21.090409492495866 L21.090409492495866 25.33305017961515 L16.140662024190032 20.383302711309316 A26 26 0 0 1 2.9999999999999996 25.826343140289918 L2.9999999999999996 25.826343140289918 L3 32.82634314028992 L-2.9999999999999956 32.82634314028992 L-2.999999999999996 25.826343140289918 A26 26 0 0 1 -16.14066202419003 20.383302711309323 L-16.14066202419003 20.383302711309323 L-21.09040949249586 25.333050179615157 L-25.33305017961515 21.090409492495866 L-20.38330271130932 16.140662024190032 A26 26 0 0 1 -25.826343140289914 3.0000000000000067 L-25.826343140289914 3.0000000000000067 L-32.826343140289914 3.0000000000000075 L-32.82634314028992 -2.9999999999999996 L-25.826343140289918 -3.0000000000000004 A26 26 0 0 1 -20.383302711309323 -16.140662024190025 L-20.383302711309323 -16.140662024190025 L-25.333050179615157 -21.09040949249586 L-21.090409492495866 -25.33305017961515 L-16.140662024190032 -20.383302711309316 A26 26 0 0 1 -3.0000000000000084 -25.826343140289914 L-3.0000000000000084 -25.826343140289914 L-3.0000000000000098 -32.826343140289914 L2.9999999999999973 -32.82634314028992 L2.9999999999999987 -25.826343140289918 A26 26 0 0 1 16.140662024190025 -20.383302711309323 L16.140662024190025 -20.383302711309323 L21.09040949249586 -25.333050179615157 L25.33305017961515 -21.09040949249587 L20.383302711309316 -16.140662024190036 A26 26 0 0 1 25.826343140289914 -3.0000000000000098 M0 -20A20 20 0 1 0 0 20 A20 20 0 1 0 0 -20"></path></g></g><g></g></g><!-- [ldio] generated by https://loading.io --></svg>